<svg xmlns="http://www.w3.org/2000/svg" width="21" height="12" viewBox="0 0 21 12" fill="none">
    <path d="M1.25211e-07 10.5C1.20367e-07 10.0937 0.140623 9.73438 0.421875 9.42188L9.42188 0.421875C9.73438 0.140624 10.0937 1.30056e-07 10.5 1.25211e-07C10.9063 1.20367e-07 11.2656 0.140624 11.5781 0.421875L20.5781 9.42188C20.8594 9.73438 21 10.0937 21 10.5C21 10.9063 20.8594 11.2656 20.5781 11.5781C20.2656 11.8594 19.9063 12 19.5 12C19.0937 12 18.7344 11.8594 18.4219 11.5781L10.5 3.60938L2.57813 11.5781C2.26562 11.8594 1.90625 12 1.5 12C1.09375 12 0.734377 11.8594 0.421875 11.5781C0.140623 11.2656 1.30056e-07 10.9063 1.25211e-07 10.5Z" fill="#1D4288"/>
</svg>