<svg xmlns="http://www.w3.org/2000/svg" width="12" height="12" viewBox="0 0 12 12" fill="none">
    <path fill-rule="evenodd" clip-rule="evenodd" d="M12 6C12 2.69287 9.30713 0 6 0C2.69287 0 0 2.69287 0 6C0 9.30713 2.69287 12 6 12C9.30713 12 12 9.30713 12 6ZM0.960036 6.00004C0.960036 3.2231 3.2231 0.960036 6.00004 0.960036C8.77697 0.960036 11.04 3.2231 11.04 6.00004C11.04 8.77697 8.77697 11.04 6.00004 11.04C3.2231 11.04 0.960036 8.77697 0.960036 6.00004ZM5.44434 2.6665V3.77762H6.55545V2.6665H5.44434ZM5.44434 8.77805V4.88916H6.55545V8.77805H5.44434Z" fill="#1D4288"/>
</svg>