<svg xmlns="http://www.w3.org/2000/svg" width="137" height="24" viewBox="0 0 137 24" fill="none">
    <g clip-path="url(#clip0_3544_125575)">
        <path d="M48.58 1.63891H44.4507C44.1048 1.63377 43.7621 1.71104 43.4502 1.86467C43.1379 2.01829 42.865 2.24409 42.6521 2.52431L36.0085 11.3029V1.63891H32.6499C32.3124 1.63888 31.9884 1.77522 31.7479 2.01846C31.5075 2.2617 31.3701 2.59229 31.3652 2.93875V23.5667H36.0085V13.9026L42.6521 22.6813C42.865 22.9615 43.1379 23.1873 43.4502 23.341C43.7621 23.4946 44.1048 23.5719 44.4507 23.5667H48.58L40.2845 12.6028L48.58 1.63891Z" fill="white"/>
        <path d="M61.4641 8.10086C59.5028 6.93095 57.1721 6.59918 54.9747 7.17715C52.7773 7.75512 50.8894 9.19648 49.7183 11.1903C48.9614 12.4736 48.5672 13.9477 48.5804 15.4478C48.569 16.9594 48.9628 18.4452 49.7183 19.7429C50.9022 21.7168 52.7866 23.1421 54.974 23.7183C57.1617 24.2946 59.4817 23.977 61.4455 22.8324C62.7132 22.0959 63.7702 21.0306 64.5107 19.7429C65.2661 18.4452 65.6596 16.9594 65.6485 15.4478C65.6567 13.9484 65.2629 12.4755 64.5107 11.1903C63.7667 9.91196 62.7182 8.8488 61.4641 8.10086ZM60.6013 17.5765C60.259 18.1912 59.7736 18.709 59.1881 19.0836C58.561 19.4827 57.8338 19.6857 57.0959 19.6676C56.3758 19.6823 55.6672 19.4792 55.0587 19.0836C54.4639 18.7154 53.971 18.1964 53.6272 17.5765C53.2785 16.9377 53.0953 16.2177 53.0953 15.4854C53.0953 14.7532 53.2785 14.0332 53.6272 13.3944C53.971 12.7745 54.4639 12.2555 55.0587 11.8873C55.6722 11.5053 56.3787 11.3093 57.0959 11.3222C57.8309 11.3078 58.5553 11.5035 59.1881 11.8873C59.7736 12.2619 60.259 12.7797 60.6013 13.3944C60.9501 14.0332 61.1333 14.7532 61.1333 15.4854C61.1333 16.2177 60.9501 16.9377 60.6013 17.5765Z" fill="white"/>
        <path d="M80.862 8.68488V9.28771C80.4199 8.69172 79.8719 8.18683 79.247 7.79949C78.3112 7.23435 77.1916 6.95176 75.8703 6.95176C74.4438 6.92188 73.0401 7.32136 71.8325 8.10089C70.6761 8.87641 69.7292 9.93908 69.0797 11.1904C68.4147 12.5048 68.0742 13.9668 68.0885 15.4478C68.072 16.9292 68.4125 18.3917 69.0797 19.7053C69.7239 20.9604 70.6721 22.0244 71.8325 22.7948C73.0383 23.581 74.442 23.987 75.8703 23.9627C77.1916 23.9627 78.3112 23.6802 79.247 23.0962C79.8719 22.7089 80.4199 22.2039 80.862 21.6079V23.5295H85.1383V7.32852H82.1469C81.9752 7.32845 81.8049 7.36377 81.6465 7.4324C81.4883 7.501 81.3449 7.60151 81.2251 7.728C81.1056 7.85444 81.0115 8.00432 80.9493 8.16866C80.8867 8.33305 80.8574 8.50857 80.862 8.68488ZM80.642 15.4855C80.6445 16.2182 80.461 16.9388 80.1098 17.5766C79.766 18.1965 79.2731 18.7154 78.6782 19.0836C78.0537 19.4651 77.3404 19.6665 76.6136 19.6665C75.8867 19.6665 75.1735 19.4651 74.5489 19.0836C73.9448 18.7125 73.4468 18.1845 73.1052 17.5527C72.764 16.921 72.5905 16.2079 72.6034 15.4855V15.4478C72.5905 14.7254 72.764 14.0124 73.1052 13.3806C73.4468 12.7489 73.9448 12.2208 74.5489 11.8497C75.177 11.4796 75.8889 11.2848 76.6136 11.2848C77.3379 11.2848 78.0498 11.4796 78.6782 11.8497C79.2731 12.2179 79.766 12.7369 80.1098 13.3568C80.461 13.9946 80.6445 14.7152 80.642 15.4478V15.4855Z" fill="white"/>
        <path d="M89.085 1.33723V23.6041H93.5995V0.0185547H90.3695C90.0289 0.0185547 89.702 0.157487 89.4613 0.404788C89.2202 0.652088 89.085 0.987501 89.085 1.33723Z" fill="white"/>
        <path d="M109.456 8.68488V9.28771C109.014 8.69172 108.466 8.18683 107.841 7.79949C106.905 7.23435 105.786 6.95176 104.464 6.95176C103.038 6.92188 101.634 7.32136 100.426 8.10089C99.271 8.87183 98.3289 9.93603 97.6918 11.1904C97.0125 12.5 96.6652 13.9642 96.6824 15.4478C96.6637 16.9317 97.0111 18.3962 97.6918 19.7053C98.3242 20.9631 99.2671 22.0285 100.426 22.7948C101.632 23.581 103.036 23.987 104.464 23.9627C105.786 23.9627 106.905 23.6802 107.841 23.0962C108.466 22.7089 109.014 22.2039 109.456 21.6079V23.5295H113.732V7.32852H110.741C110.569 7.32845 110.399 7.36377 110.24 7.4324C110.082 7.501 109.939 7.60151 109.819 7.728C109.699 7.85444 109.605 8.00432 109.543 8.16866C109.481 8.33305 109.451 8.50857 109.456 8.68488ZM109.236 15.4855C109.238 16.2182 109.055 16.9388 108.704 17.5766C108.36 18.1965 107.867 18.7154 107.272 19.0836C106.648 19.4651 105.934 19.6665 105.207 19.6665C104.481 19.6665 103.767 19.4651 103.143 19.0836C102.539 18.7125 102.041 18.1845 101.699 17.5527C101.358 16.921 101.184 16.2079 101.197 15.4855V15.4478C101.184 14.7254 101.358 14.0124 101.699 13.3806C102.041 12.7489 102.539 12.2208 103.143 11.8497C103.771 11.4796 104.483 11.2848 105.207 11.2848C105.932 11.2848 106.644 11.4796 107.272 11.8497C107.867 12.2179 108.36 12.7369 108.704 13.3568C109.055 13.9946 109.238 14.7152 109.236 15.4478V15.4855Z" fill="white"/>
        <path d="M126.359 0C124.835 0 123.569 0.301413 122.541 0.904238C121.562 1.48659 120.771 2.35122 120.266 3.3909C119.74 4.48567 119.475 5.69323 119.495 6.91365V7.44115H117.99C117.822 7.43864 117.655 7.47041 117.5 7.5346C117.344 7.59883 117.202 7.69418 117.082 7.81512C116.963 7.93608 116.868 8.08023 116.803 8.23916C116.738 8.3981 116.705 8.56868 116.705 8.74098V11.3406H119.495V23.5667H124.009V11.3406H129.02V7.44115H124.009V6.83832C124.009 5.93405 124.248 5.25589 124.744 4.80376C125.239 4.35167 125.918 4.14444 126.762 4.14444C127.2 4.14903 127.637 4.19953 128.065 4.29514C128.496 4.39694 128.906 4.57547 129.277 4.8226V0.546312C128.838 0.367508 128.383 0.234956 127.919 0.150706C127.404 0.0530085 126.882 0.00257338 126.359 0Z" fill="white"/>
        <path fill-rule="evenodd" clip-rule="evenodd" d="M135.48 0.396086C135.893 0.646955 136.234 1.00411 136.471 1.4322C136.712 1.87216 136.839 2.36849 136.839 2.87332C136.839 3.37816 136.712 3.87448 136.471 4.31447C136.241 4.7522 135.898 5.11697 135.48 5.3694C135.051 5.61695 134.568 5.74702 134.076 5.74702C133.584 5.74702 133.101 5.61695 132.672 5.3694C132.24 5.12327 131.884 4.75779 131.644 4.31447C131.403 3.87448 131.276 3.37816 131.276 2.87332C131.276 2.36849 131.403 1.87216 131.644 1.4322C131.889 0.998171 132.245 0.640213 132.672 0.396086C133.097 0.137453 133.582 0.000976562 134.076 0.000976562C134.57 0.000976562 135.055 0.137453 135.48 0.396086ZM131.828 23.5672V8.74139C131.828 8.5691 131.861 8.39852 131.926 8.23958C131.991 8.08064 132.085 7.9365 132.205 7.81553C132.325 7.6946 132.466 7.59925 132.622 7.53505C132.778 7.47083 132.945 7.43905 133.112 7.44156H136.324V23.5672H131.828Z" fill="white"/>
        <path d="M22.8491 19.4408V23.5663H15.4712C14.9496 23.5718 14.4322 23.4696 13.9498 23.2657C13.4674 23.0619 13.0299 22.7605 12.6632 22.3795L11.4336 21.1173V16.9541H20.4265C21.069 16.9541 21.6852 17.2161 22.1395 17.6824C22.5938 18.1488 22.8491 18.7813 22.8491 19.4408Z" fill="#64C5FA"/>
        <path d="M11.4338 16.9541V21.1173L10.1858 22.3795C9.81918 22.7605 9.38167 23.0619 8.89928 23.2657C8.41688 23.4696 7.89946 23.5718 7.37783 23.5663H0V19.4408C0 18.7813 0.255234 18.1488 0.709553 17.6824C1.16387 17.2161 1.78006 16.9541 2.42257 16.9541H11.4338Z" fill="#476FD7"/>
        <path d="M22.8489 6.98874V1.63867L13.1953 8.21324C12.6488 8.58356 12.2002 9.08705 11.8895 9.67878C11.5789 10.2705 11.4159 10.932 11.415 11.6041V16.9542L21.0686 10.3797C21.6128 10.0069 22.0597 9.5029 22.3701 8.91171C22.6804 8.32056 22.8448 7.66027 22.8489 6.98874Z" fill="#7BE4AF"/>
        <path d="M11.4338 11.6041V16.9542L1.78022 10.3797C1.236 10.0069 0.789141 9.5029 0.478777 8.91171C0.168413 8.32056 0.00401979 7.66027 0 6.98874V1.63867L9.65356 8.21324C10.2001 8.58356 10.6487 9.08705 10.9593 9.67878C11.27 10.2705 11.433 10.932 11.4338 11.6041Z" fill="#4492A4"/>
    </g>
    <defs>
        <clipPath id="clip0_3544_125575">
            <rect width="137" height="24" fill="white"/>
        </clipPath>
    </defs>
</svg>