<svg xmlns="http://www.w3.org/2000/svg" width="20" height="20" viewBox="0 0 20 20" fill="none">
    <g clip-path="url(#clip0_2642_1232)">
        <path d="M10.5 4.98438V10.2344L15 12.9062L14.25 14.1719L9 10.9844V4.98438H10.5ZM4.3125 15.6719C5.90626 17.2344 7.79686 18.0156 9.98438 18.0156C12.1719 18.0156 14.0547 17.2266 15.6328 15.6484C17.2109 14.0703 18 12.1875 18 10C18 7.81249 17.2109 5.9297 15.6328 4.35156C14.0547 2.77343 12.1719 1.98438 9.98438 1.98438C7.79686 1.98438 5.91407 2.77343 4.33594 4.35156C2.7578 5.9297 1.96875 7.81249 1.96875 10C1.96875 12.1875 2.74999 14.0781 4.3125 15.6719ZM2.90625 2.96875C4.87501 0.99999 7.23436 0.015625 9.98438 0.015625C12.7344 0.015625 15.0859 0.992178 17.0391 2.94531C18.9922 4.89845 19.9688 7.24999 19.9688 10C19.9688 12.75 18.9922 15.1016 17.0391 17.0547C15.0859 19.0078 12.7344 19.9844 9.98438 19.9844C7.23436 19.9844 4.88282 19.0078 2.92969 17.0547C0.976553 15.1016 0 12.75 0 10C0 7.24999 0.96874 4.90626 2.90625 2.96875Z" fill="#1A1A1A" />
    </g>
    <defs>
        <clipPath id="clip0_2642_1232">
            <rect width="19.9688" height="19.9688" fill="white" transform="translate(0 0.015625)" />
        </clipPath>
    </defs>
</svg>