<svg xmlns="http://www.w3.org/2000/svg" width="29" height="27" viewBox="0 0 29 27" fill="none">
    <path d="M18.1843 0C13.146 0 8.47116 3.42618 6.14717 8.30074C3.28033 7.78132 0.377592 10.1137 0.0321347 13.4899C-0.313322 16.8712 2.17666 19.1986 5.08837 18.6792C6.41636 23.5537 10.3869 26.9799 15.4252 26.9799C22.1145 26.9799 28.1577 20.9416 28.9204 13.4899C29.6831 6.03826 24.8781 0 18.1843 0ZM7.41236 13.5349C7.24187 15.1331 5.9408 16.4317 4.50065 16.4317C3.06049 16.4317 2.03758 15.1331 2.20807 13.5349C2.37855 11.9367 3.68411 10.6381 5.11978 10.6381C6.55544 10.6381 7.58284 11.9367 7.41236 13.5349ZM24.0885 10.0088H20.6429C20.7326 9.19974 20.6115 8.55545 20.266 8.12094C19.8039 7.53659 18.9246 7.2569 17.5697 7.2569C16.2148 7.2569 14.7118 7.99608 14.4785 9.36455C14.4023 9.81405 14.4516 10.1637 14.6266 10.4384C14.8688 10.8179 15.3713 11.0627 16.1564 11.1875L20.1853 11.8318C21.6299 12.0615 22.6528 12.6309 23.2271 13.5249C23.8417 14.4838 23.8148 15.6276 23.6802 16.4217C23.0925 19.8828 20.0911 21.7907 15.2278 21.7907C12.7467 21.7907 10.9208 21.0965 9.94272 19.7829C9.24283 18.839 9.00953 17.6353 9.2518 16.1969H12.6974C12.6346 17.011 12.8051 17.7052 13.1999 18.1847C13.7427 18.839 14.7073 19.1736 16.0712 19.1736C18.7092 19.1736 19.8578 17.905 20.0417 16.8212C20.1135 16.4067 20.0686 16.0821 19.9026 15.8273C19.6469 15.4278 19.0771 15.1731 18.117 15.0232L15.2143 14.5787C13.2403 14.2741 11.9033 13.5948 11.2348 12.561C10.7772 11.8518 10.6336 10.9728 10.8086 9.9439C11.4681 6.03327 15.0976 4.63982 18.2696 4.63982C20.6474 4.63982 22.4016 5.2841 23.3393 6.50275C24.0302 7.40174 24.2814 8.58043 24.084 10.0038" fill="white"/>
</svg>