<svg xmlns="http://www.w3.org/2000/svg" width="18" height="24" viewBox="0 0 18 24" fill="none">
    <g clip-path="url(#clip0_2642_1228)">
        <path d="M9.69588 21.3162L0 11.6051V13.603C0 14.1141 0.185567 14.6253 0.603093 14.997L8.30412 22.7101C9.04639 23.5 10.3454 23.5 11.0876 22.7101L17.2577 16.5768C18 15.7869 18 14.5323 17.2577 13.7424L9.69588 21.3162ZM8.30412 17.7384C9.04639 18.5283 10.3454 18.5283 11.0876 17.7384L17.2577 11.6051C18 10.8152 18 9.56061 17.2577 8.81717L9.51031 1.05758C9.13917 0.685859 8.62887 0.5 8.11856 0.5H1.99485C0.881443 0.5 0 1.38283 0 2.49798V8.63131C0 9.14242 0.185567 9.65353 0.603093 10.0253L8.30412 17.7384ZM4.22165 3.47374C4.87113 3.47374 5.42783 4.03131 5.42783 4.72828C5.42783 5.37879 4.87113 5.93636 4.22165 5.93636C3.52577 5.93636 2.96907 5.37879 2.96907 4.72828C2.96907 4.03131 3.52577 3.47374 4.22165 3.47374Z" fill="#FF5349" />
    </g>
    <defs>
        <clipPath id="clip0_2642_1228">
            <rect width="18" height="23" fill="white" transform="translate(0 0.5)" />
        </clipPath>
    </defs>
</svg>