<svg xmlns="http://www.w3.org/2000/svg" width="26" height="26" viewBox="0 0 26 26" fill="none">
    <path d="M5 14.4338C5 15.0943 5.19773 15.6841 5.59321 16.2033C5.98868 16.7225 6.49688 17.0683 7.11781 17.2408C7.17325 17.2481 7.2213 17.2335 7.26195 17.1968L7.95496 16.3712C7.42642 16.3712 6.97367 16.1813 6.59667 15.8015C6.21968 15.4217 6.03119 14.9658 6.03119 14.4338C6.03119 13.9458 6.19843 13.522 6.53292 13.1624C6.86741 12.8028 7.28413 12.5936 7.78309 12.5349L8.07138 12.5184C8.149 12.5184 8.1878 12.4817 8.1878 12.4083L8.23216 12.0891C8.29499 11.4543 8.56664 10.9223 9.04712 10.4929C9.52761 10.0636 10.0912 9.84899 10.738 9.84899C11.3885 9.84899 11.9559 10.0636 12.4401 10.4929C12.9242 10.9223 13.1977 11.4543 13.2606 12.0891L13.2994 12.4358C13.3252 12.5019 13.3678 12.5349 13.4269 12.5349H14.3971C14.9182 12.5349 15.3673 12.7211 15.7443 13.0936C16.1213 13.466 16.3098 13.9127 16.3098 14.4338C16.3098 14.9291 16.1425 15.3621 15.808 15.7327C15.4735 16.1033 15.0661 16.3088 14.5856 16.3492C14.2973 16.3822 14.1199 16.4372 14.0534 16.5143L12.7561 18.171C12.6748 18.281 12.6433 18.404 12.6618 18.5397C12.6803 18.6755 12.7413 18.7856 12.8448 18.87C12.9335 18.969 13.0508 19.0094 13.1968 18.9911C13.3428 18.9727 13.4602 18.903 13.5489 18.7819L14.6854 17.3399C15.1696 17.2922 15.6121 17.1326 16.0132 16.861C16.4142 16.5895 16.7311 16.2391 16.964 15.8098C17.1968 15.3805 17.3132 14.9218 17.3132 14.4338C17.3132 14.0118 17.2301 13.6192 17.0638 13.2559C17.5295 12.6945 17.7623 12.0432 17.7623 11.302C17.7623 10.8874 17.6791 10.4893 17.5128 10.1077C17.3465 9.72606 17.1238 9.39766 16.8448 9.12246C16.5657 8.84726 16.234 8.62711 15.8496 8.46199C15.4652 8.29687 15.0624 8.21431 14.641 8.21431C13.754 8.21431 12.9889 8.55555 12.3458 9.23805C11.8764 8.98119 11.3405 8.85277 10.738 8.85277C9.90274 8.85277 9.16355 9.11054 8.52044 9.62608C7.87734 10.1416 7.46893 10.8012 7.29522 11.6047C6.62624 11.7552 6.07646 12.0946 5.64588 12.623C5.21529 13.1514 5 13.755 5 14.4338ZM7.30631 19.2718C7.35066 19.4002 7.44121 19.4938 7.57796 19.5525C7.70732 19.6112 7.83853 19.613 7.97159 19.558C8.10464 19.5029 8.1952 19.4112 8.24324 19.2828C8.29868 19.1617 8.29961 19.0397 8.24602 18.9168C8.19242 18.7938 8.10464 18.703 7.98268 18.6443C7.85331 18.5856 7.72303 18.5819 7.59182 18.6333C7.46061 18.6847 7.37099 18.7746 7.32294 18.903C7.27489 19.0534 7.26935 19.1764 7.30631 19.2718ZM8.3763 17.6591V17.7251C8.38739 17.8536 8.44652 17.9618 8.55371 18.0499C8.6572 18.1379 8.78101 18.1765 8.92516 18.1655C9.0693 18.1545 9.18203 18.0976 9.26334 17.9948L10.5551 16.3382C10.6401 16.2317 10.6771 16.1079 10.666 15.9666C10.6549 15.8254 10.5976 15.7144 10.4941 15.6336C10.3869 15.5456 10.2622 15.5089 10.1199 15.5236C9.97759 15.5382 9.8584 15.5988 9.7623 15.7052L8.49272 17.3509C8.41511 17.4463 8.3763 17.549 8.3763 17.6591ZM8.68122 20.5157C8.68122 20.5523 8.69231 20.6111 8.71448 20.6918C8.76623 20.8202 8.85678 20.9101 8.98614 20.9615C9.05267 20.9872 9.12289 21 9.19681 21C9.25225 21 9.31324 20.9908 9.37976 20.9725C9.50543 20.9248 9.59228 20.8386 9.64033 20.7138C9.69947 20.5854 9.70409 20.4551 9.65419 20.323C9.6043 20.1909 9.51652 20.101 9.39085 20.0533C9.26149 19.9946 9.12936 19.9919 8.99446 20.0451C8.85955 20.0983 8.76992 20.1872 8.72557 20.312C8.696 20.3744 8.68122 20.4423 8.68122 20.5157ZM9.66805 19.1232V19.1837C9.67914 19.3158 9.74382 19.4295 9.86209 19.5249C9.9508 19.6203 10.0691 19.6598 10.2169 19.6433C10.3647 19.6268 10.483 19.5598 10.5717 19.4424L13.0222 16.3712C13.1035 16.2538 13.1368 16.1281 13.122 15.9942C13.1072 15.8602 13.0462 15.7456 12.939 15.6502C12.8318 15.5658 12.7099 15.5318 12.5731 15.5483C12.4364 15.5648 12.3255 15.6263 12.2405 15.7327L9.77893 18.8204C9.70501 18.9085 9.66805 19.0094 9.66805 19.1232ZM10.0118 7.21259C10.0118 7.35569 10.0654 7.47128 10.1726 7.55934L10.5329 7.94462C10.6253 8.03635 10.7325 8.08772 10.8545 8.09873C10.9764 8.11707 11.0975 8.07304 11.2176 7.96663C11.3377 7.86022 11.3978 7.73547 11.3978 7.59236C11.3978 7.46027 11.3497 7.34285 11.2536 7.24011L10.8711 6.86034C10.7824 6.76493 10.6678 6.71723 10.5274 6.71723C10.3832 6.71723 10.2613 6.76493 10.1615 6.86034C10.0617 6.95574 10.0118 7.07316 10.0118 7.21259ZM11.7526 19.7946C11.7526 19.8644 11.7655 19.9249 11.7914 19.9763C11.8432 20.1047 11.9319 20.1946 12.0575 20.246C12.1204 20.2753 12.1887 20.29 12.2626 20.29C12.2996 20.29 12.3587 20.279 12.4401 20.257C12.5731 20.2056 12.6637 20.1157 12.7117 19.9873C12.7708 19.8588 12.7755 19.7295 12.7256 19.5992C12.6757 19.469 12.5879 19.38 12.4622 19.3323C12.3329 19.2736 12.2007 19.2699 12.0658 19.3213C11.9309 19.3727 11.8395 19.4607 11.7914 19.5855C11.7655 19.6515 11.7526 19.7212 11.7526 19.7946ZM13.1774 9.80495C13.5951 9.42701 14.0829 9.23805 14.641 9.23805C15.225 9.23805 15.724 9.43894 16.1379 9.84073C16.5519 10.2425 16.7588 10.7296 16.7588 11.302C16.7588 11.691 16.6572 12.0542 16.4539 12.3918C15.881 11.8231 15.1954 11.5387 14.3971 11.5387H14.1975C14.0349 10.8635 13.6949 10.2856 13.1774 9.80495ZM14.1365 6.71723C14.1365 6.853 14.1855 6.96766 14.2834 7.06123C14.3814 7.1548 14.5006 7.20158 14.641 7.20158C14.7852 7.20158 14.9071 7.1548 15.0069 7.06123C15.1067 6.96766 15.1566 6.853 15.1566 6.71723V5.50086C15.1566 5.36509 15.1058 5.24768 15.0042 5.14861C14.9025 5.04954 14.7815 5 14.641 5C14.5043 5 14.386 5.04862 14.2862 5.14585C14.1864 5.24309 14.1365 5.36143 14.1365 5.50086V6.71723ZM17.5683 7.70244C17.4796 7.79784 17.4352 7.91526 17.4352 8.0547C17.4352 8.19413 17.4796 8.31155 17.5683 8.40695C17.6717 8.50602 17.7928 8.55647 17.9314 8.55831C18.07 8.56014 18.1818 8.50969 18.2668 8.40695L19.1483 7.55934C19.2444 7.46394 19.2924 7.34469 19.2924 7.20158C19.2924 7.06215 19.2416 6.94198 19.14 6.84107C19.0383 6.74017 18.9192 6.68971 18.7824 6.68971C18.653 6.68971 18.5348 6.73925 18.4276 6.83832L17.5683 7.70244ZM18.045 14.6925C17.9453 14.7879 17.8954 14.9053 17.8954 15.0447C17.8954 15.1842 17.9434 15.3016 18.0395 15.397L18.4276 15.7657C18.5237 15.8611 18.6309 15.9143 18.7491 15.9254H18.7824C18.8859 15.9254 19.0079 15.8721 19.1483 15.7657C19.2444 15.6703 19.2924 15.5566 19.2924 15.4245C19.2924 15.2851 19.2444 15.1621 19.1483 15.0557L18.7602 14.6925C18.6641 14.5934 18.5477 14.5439 18.4109 14.5439C18.2668 14.5439 18.1448 14.5934 18.045 14.6925ZM18.7824 11.302C18.7824 11.4415 18.8304 11.5589 18.9265 11.6543C19.0226 11.7607 19.1409 11.8139 19.2814 11.8139H20.49C20.6304 11.8139 20.7505 11.7634 20.8503 11.6625C20.9501 11.5616 21 11.4415 21 11.302C21 11.1663 20.9501 11.0516 20.8503 10.958C20.7505 10.8645 20.6304 10.8177 20.49 10.8177H19.2814C19.1409 10.8177 19.0226 10.8645 18.9265 10.958C18.8304 11.0516 18.7824 11.1663 18.7824 11.302Z" fill="#1D4288"/>
    <rect x="0.5" y="0.5" width="25" height="25" rx="12.5" stroke="#1D4288"/>
</svg>